<svg width="24" height="14" viewBox="0 0 24 14" fill="none" xmlns="http://www.w3.org/2000/svg">
<path fill-rule="evenodd" clip-rule="evenodd" d="M22 0C23.1046 0 24 0.89543 24 2V12C24 13.1046 23.1046 14 22 14H2C0.895432 14 0 13.1046 0 12V2C0 0.89543 0.89543 0 2 0H22ZM2 2H22V12H2V2ZM9 4C9.55228 4 10 4.44772 10 5V9C10 9.5523 9.55228 10 9 10H5C4.44772 10 4 9.5523 4 9V5C4 4.44772 4.44772 4 5 4H9ZM16 4C16.5523 4 17 4.44772 17 5V9C17 9.5523 16.5523 10 16 10H12C11.4477 10 11 9.5523 11 9V5C11 4.44772 11.4477 4 12 4H16Z" fill="#00875A"/>
</svg>
