<svg width="24" height="24" viewBox="0 0 24 24" fill="none" xmlns="http://www.w3.org/2000/svg">
<path fill-rule="evenodd" clip-rule="evenodd" d="M6 3C4.34315 3 3 4.34315 3 6V18C3 19.6569 4.34315 21 6 21H18C19.6569 21 21 19.6569 21 18V6C21 4.34315 19.6569 3 18 3H6ZM18 5H6C5.44772 5 5 5.44772 5 6V18C5 18.5523 5.44772 19 6 19H18C18.5523 19 19 18.5523 19 18V6C19 5.44772 18.5523 5 18 5ZM14.7782 7.70711C15.1688 7.31658 15.8019 7.31658 16.1925 7.70711C16.583 8.09763 16.583 8.7308 16.1925 9.12132L9.12139 16.1924C8.73087 16.5829 8.0977 16.5829 7.70718 16.1924C7.31665 15.8019 7.31665 15.1687 7.70718 14.7782L14.7782 7.70711Z" fill="#171717"/>
</svg>
