<svg width="24" height="24" viewBox="0 0 24 24" fill="none" xmlns="http://www.w3.org/2000/svg">
<path fill-rule="evenodd" clip-rule="evenodd" d="M8 3C8.55228 3 9 2.55228 9 2C9 1.44772 8.55228 1 8 1C7.44772 1 7 1.44772 7 2C7 2.55228 7.44772 3 8 3ZM12 3C12.5523 3 13 2.55228 13 2C13 1.44772 12.5523 1 12 1C11.4477 1 11 1.44772 11 2C11 2.55228 11.4477 3 12 3ZM17 2C17 2.55228 16.5523 3 16 3C15.4477 3 15 2.55228 15 2C15 1.44772 15.4477 1 16 1C16.5523 1 17 1.44772 17 2ZM8 23C8.55228 23 9 22.5523 9 22C9 21.4477 8.55228 21 8 21C7.44772 21 7 21.4477 7 22C7 22.5523 7.44772 23 8 23ZM12 23C12.5523 23 13 22.5523 13 22C13 21.4477 12.5523 21 12 21C11.4477 21 11 21.4477 11 22C11 22.5523 11.4477 23 12 23ZM17 22C17 22.5523 16.5523 23 16 23C15.4477 23 15 22.5523 15 22C15 21.4477 15.4477 21 16 21C16.5523 21 17 21.4477 17 22ZM22 15C22.5523 15 23 15.4477 23 16C23 16.5523 22.5523 17 22 17C21.4477 17 21 16.5523 21 16C21 15.4477 21.4477 15 22 15ZM22 11C22.5523 11 23 11.4477 23 12C23 12.5523 22.5523 13 22 13C21.4477 13 21 12.5523 21 12C21 11.4477 21.4477 11 22 11ZM23 8C23 7.44771 22.5523 7 22 7C21.4477 7 21 7.44771 21 8C21 8.55229 21.4477 9 22 9C22.5523 9 23 8.55229 23 8ZM3 16C3 15.4477 2.55228 15 2 15C1.44772 15 1 15.4477 1 16C1 16.5523 1.44772 17 2 17C2.55228 17 3 16.5523 3 16ZM3 12C3 11.4477 2.55228 11 2 11C1.44772 11 1 11.4477 1 12C1 12.5523 1.44772 13 2 13C2.55228 13 3 12.5523 3 12ZM2 7C2.55228 7 3 7.44771 3 8C3 8.55229 2.55228 9 2 9C1.44772 9 1 8.55229 1 8C1 7.44771 1.44772 7 2 7ZM7 6H17C17.5523 6 18 6.44772 18 7V17C18 17.5523 17.5523 18 17 18H7C6.44772 18 6 17.5523 6 17V7C6 6.44772 6.44772 6 7 6ZM4 7C4 5.34315 5.34315 4 7 4H17C18.6569 4 20 5.34315 20 7V17C20 18.6569 18.6569 20 17 20H7C5.34315 20 4 18.6569 4 17V7ZM10 10H14V14H10V10ZM8 16V8H16V16H8Z" fill="#171717"/>
</svg>
