<svg width="24" height="24" viewBox="0 0 24 24" fill="none" xmlns="http://www.w3.org/2000/svg">
<path fill-rule="evenodd" clip-rule="evenodd" d="M18.6214 2.55029L21.4498 5.37872L20.0356 6.79293L17.2071 3.96451L18.6214 2.55029ZM12.8225 8.60055H10.8225V12.6005H12.8225V8.60055ZM17.9143 18.8137C14.3995 22.3285 8.70105 22.3285 5.18633 18.8137C1.67161 15.299 1.67161 9.60054 5.18633 6.08583C8.70105 2.57111 14.3995 2.57111 17.9143 6.08583C21.429 9.60055 21.429 15.299 17.9143 18.8137ZM16.5 17.3995C13.7664 20.1332 9.33422 20.1332 6.60054 17.3995C3.86688 14.6659 3.86688 10.2337 6.60054 7.50004C9.33422 4.76637 13.7664 4.76637 16.5 7.50004C19.2337 10.2337 19.2337 14.6659 16.5 17.3995Z" fill="#171717"/>
</svg>
